<?xml version="1.0" encoding="utf-8" ?>
<svg baseProfile="tiny" height="100%" version="1.2" width="100%" xmlns="http://www.w3.org/2000/svg" xmlns:ev="http://www.w3.org/2001/xml-events" xmlns:xlink="http://www.w3.org/1999/xlink"><defs /><polygon fill="none" points="0,0 100,0 100,100 0,100" stroke="black" /><line stroke="red" x1="18.5088" x2="48.2888" y1="7.7633" y2="31.9096" /><line stroke="blue" x1="34.0" x2="48.2888" y1="0.0" y2="31.9096" /><line stroke="red" x1="48.2888" x2="63.4" y1="31.9096" y2="0.0" /><line stroke="red" x1="63.4" x2="78.9358" y1="0.0" y2="4.1726" /><line stroke="red" x1="63.3864" x2="100.0" y1="43.4155" y2="93.2" /><line stroke="red" x1="18.5088" x2="0.0" y1="7.7633" y2="100.0" /><line stroke="red" x1="42.0" x2="63.3864" y1="100.0" y2="43.4155" /><line stroke="blue" x1="0.0" x2="18.5088" y1="0.0" y2="7.7633" /><line stroke="blue" x1="0.0" x2="39.7881" y1="100.0" y2="56.1746" /><line stroke="blue" x1="39.7881" x2="63.3864" y1="56.1746" y2="43.4155" /><line stroke="blue" x1="18.5088" x2="39.7881" y1="7.7633" y2="56.1746" /><line stroke="red" x1="63.3864" x2="78.9358" y1="43.4155" y2="4.1726" /><line stroke="red" x1="78.9358" x2="100.0" y1="4.1726" y2="0.0" /><line stroke="red" x1="39.7881" x2="38.1027" y1="56.1746" y2="34.0827" /><line stroke="blue" x1="38.1027" x2="63.3864" y1="34.0827" y2="43.4155" /><line stroke="red" x1="18.5088" x2="38.1027" y1="7.7633" y2="34.0827" /><line stroke="red" x1="34.0" x2="18.5088" y1="0.0" y2="7.7633" /><line stroke="blue" x1="48.2888" x2="78.9358" y1="31.9096" y2="4.1726" /><line stroke="red" x1="63.3864" x2="48.2888" y1="43.4155" y2="31.9096" /><line stroke="red" x1="38.1027" x2="48.2888" y1="34.0827" y2="31.9096" /></svg>